<?xml version="1.0" encoding="utf-8"?>
<!-- Generator: Adobe Illustrator 19.1.0, SVG Export Plug-In . SVG Version: 6.00 Build 0)  -->
<svg version="1.1" id="图层_1" xmlns="http://www.w3.org/2000/svg" xmlns:xlink="http://www.w3.org/1999/xlink" x="0px" y="0px"
	 viewBox="0 0 40 40" style="enable-background:new 0 0 40 40;" xml:space="preserve">
<style type="text/css">
	.st0{fill:#FFFFFF;}
</style>
<path class="st0" d="M38,11H2c-1.1,0-2-0.9-2-2v0c0-1.1,0.9-2,2-2h36c1.1,0,2,0.9,2,2v0C40,10.1,39.1,11,38,11z"/>
<path class="st0" d="M38,22H2c-1.1,0-2-0.9-2-2v0c0-1.1,0.9-2,2-2h36c1.1,0,2,0.9,2,2v0C40,21.1,39.1,22,38,22z"/>
<path class="st0" d="M38,34H2c-1.1,0-2-0.9-2-2v0c0-1.1,0.9-2,2-2h36c1.1,0,2,0.9,2,2v0C40,33.1,39.1,34,38,34z"/>
</svg>
